<svg xmlns="http://www.w3.org/2000/svg" xmlns:xlink="http://www.w3.org/1999/xlink" width="1080" zoomAndPan="magnify" viewBox="0 0 810 809.999993" height="1080" preserveAspectRatio="xMidYMid meet" version="1.0"><defs><clipPath id="32bda621c1"><path d="M 40.5 40.5 L 769.5 40.5 L 769.5 769.5 L 40.5 769.5 Z M 40.5 40.5 " clip-rule="nonzero"/></clipPath></defs><path fill="#0ce700" d="M 405 235.992188 L 222.75 274.339844 L 222.75 463.472656 C 222.75 556.875 277.28125 643.0625 361.714844 683.074219 L 405 703.578125 L 448.285156 683.074219 C 532.71875 643.0625 587.25 556.875 587.25 463.472656 L 587.25 274.339844 L 405 235.992188 " fill-opacity="1" fill-rule="nonzero"/><path fill="#ffffff" d="M 575.101562 284.210938 L 575.101562 463.472656 C 575.101562 552.222656 523.273438 634.09375 443.0625 672.109375 L 405 690.144531 L 366.890625 672.109375 C 286.726562 634.09375 234.898438 552.222656 234.898438 463.472656 L 234.898438 284.210938 L 405 248.378906 Z M 220.234375 262.425781 C 214.632812 263.613281 210.601562 268.597656 210.601562 274.339844 L 210.601562 463.472656 C 210.601562 561.574219 267.886719 652.082031 356.542969 694.039062 L 399.828125 714.539062 C 401.441406 715.347656 403.195312 715.726562 405 715.726562 C 406.804688 715.726562 408.558594 715.347656 410.171875 714.539062 L 453.457031 694.085938 C 542.113281 652.082031 599.398438 561.574219 599.398438 463.472656 L 599.398438 274.339844 C 599.398438 268.597656 595.367188 263.613281 589.765625 262.425781 L 407.515625 224.078125 C 405.855469 223.746094 404.144531 223.746094 402.484375 224.078125 L 220.234375 262.425781 " fill-opacity="1" fill-rule="nonzero"/><path fill="#ffffff" d="M 372.109375 522.941406 C 374.484375 525.3125 377.566406 526.5 380.699219 526.5 C 383.832031 526.5 386.917969 525.3125 389.289062 522.941406 L 509.554688 402.675781 C 514.300781 397.929688 514.300781 390.238281 509.554688 385.492188 C 504.808594 380.746094 497.121094 380.746094 492.375 385.492188 L 380.699219 497.167969 L 320.566406 437.035156 C 315.820312 432.289062 308.132812 432.289062 303.386719 437.035156 C 298.640625 441.78125 298.640625 449.472656 303.386719 454.21875 L 372.109375 522.941406 " fill-opacity="1" fill-rule="nonzero"/><g clip-path="url(#32bda621c1)"><path fill="#ffffff" d="M 733.050781 392.851562 C 726.359375 392.851562 720.898438 387.390625 720.898438 380.699219 C 720.898438 374.007812 726.359375 368.550781 733.050781 368.550781 C 739.742188 368.550781 745.199219 374.007812 745.199219 380.699219 C 745.199219 387.390625 739.742188 392.851562 733.050781 392.851562 Z M 623.699219 463.472656 C 623.699219 570.875 560.957031 670.023438 463.898438 716.011719 L 405 743.917969 L 346.101562 716.011719 C 249.042969 670.023438 186.300781 570.875 186.300781 463.472656 L 186.300781 244.773438 L 405 198.734375 L 623.699219 244.773438 Z M 76.949219 745.199219 C 70.257812 745.199219 64.800781 739.742188 64.800781 733.050781 C 64.800781 726.359375 70.257812 720.898438 76.949219 720.898438 C 83.640625 720.898438 89.101562 726.359375 89.101562 733.050781 C 89.101562 739.742188 83.640625 745.199219 76.949219 745.199219 Z M 76.949219 623.699219 C 70.257812 623.699219 64.800781 618.242188 64.800781 611.550781 C 64.800781 604.859375 70.257812 599.398438 76.949219 599.398438 C 83.640625 599.398438 89.101562 604.859375 89.101562 611.550781 C 89.101562 618.242188 83.640625 623.699219 76.949219 623.699219 Z M 76.949219 502.199219 C 70.257812 502.199219 64.800781 496.742188 64.800781 490.050781 C 64.800781 483.359375 70.257812 477.898438 76.949219 477.898438 C 83.640625 477.898438 89.101562 483.359375 89.101562 490.050781 C 89.101562 496.742188 83.640625 502.199219 76.949219 502.199219 Z M 526.5 64.800781 C 533.191406 64.800781 538.648438 70.257812 538.648438 76.949219 C 538.648438 83.640625 533.191406 89.101562 526.5 89.101562 C 519.808594 89.101562 514.351562 83.640625 514.351562 76.949219 C 514.351562 70.257812 519.808594 64.800781 526.5 64.800781 Z M 684.449219 76.949219 C 691.140625 76.949219 696.601562 82.40625 696.601562 89.101562 C 696.601562 95.792969 691.140625 101.25 684.449219 101.25 C 677.757812 101.25 672.300781 95.792969 672.300781 89.101562 C 672.300781 82.40625 677.757812 76.949219 684.449219 76.949219 Z M 733.050781 271.351562 C 739.742188 271.351562 745.199219 276.808594 745.199219 283.5 C 745.199219 290.191406 739.742188 295.648438 733.050781 295.648438 C 726.359375 295.648438 720.898438 290.191406 720.898438 283.5 C 720.898438 276.808594 726.359375 271.351562 733.050781 271.351562 Z M 733.050781 344.25 C 717.246094 344.25 703.863281 354.453125 698.832031 368.550781 L 648 368.550781 L 648 295.648438 L 698.832031 295.648438 C 703.863281 309.746094 717.246094 319.949219 733.050781 319.949219 C 753.171875 319.949219 769.5 303.625 769.5 283.5 C 769.5 263.375 753.171875 247.050781 733.050781 247.050781 C 717.246094 247.050781 703.863281 257.253906 698.832031 271.351562 L 648 271.351562 L 648 234.898438 C 648 229.15625 643.964844 224.175781 638.367188 223.035156 L 599.398438 214.824219 L 599.398438 156.351562 L 660.007812 115.964844 C 666.511719 121.847656 675.003906 125.550781 684.449219 125.550781 C 704.574219 125.550781 720.898438 109.222656 720.898438 89.101562 C 720.898438 68.976562 704.574219 52.648438 684.449219 52.648438 C 664.328125 52.648438 648 68.976562 648 89.101562 C 648 90.902344 648.285156 92.660156 648.523438 94.367188 L 575.101562 143.347656 L 575.101562 209.699219 L 417.148438 176.429688 L 417.148438 133.949219 L 500.679688 102.625 C 507.277344 109.269531 516.390625 113.398438 526.5 113.398438 C 546.625 113.398438 562.949219 97.074219 562.949219 76.949219 C 562.949219 56.828125 546.625 40.5 526.5 40.5 C 506.375 40.5 490.050781 56.828125 490.050781 76.949219 C 490.050781 78.183594 490.289062 79.324219 490.429688 80.558594 L 392.851562 117.148438 L 392.851562 176.429688 L 171.632812 223.035156 C 166.035156 224.175781 162 229.15625 162 234.898438 L 162 463.472656 C 162 468.3125 162.285156 473.105469 162.523438 477.898438 L 111.167969 477.898438 C 106.136719 463.804688 92.753906 453.601562 76.949219 453.601562 C 56.828125 453.601562 40.5 469.925781 40.5 490.050781 C 40.5 510.171875 56.828125 526.5 76.949219 526.5 C 92.753906 526.5 106.136719 516.296875 111.167969 502.199219 L 164.65625 502.199219 C 169.070312 536.324219 179.371094 569.167969 194.558594 599.398438 L 111.167969 599.398438 C 106.136719 585.304688 92.753906 575.101562 76.949219 575.101562 C 56.828125 575.101562 40.5 591.425781 40.5 611.550781 C 40.5 631.671875 56.828125 648 76.949219 648 C 92.753906 648 106.136719 637.796875 111.167969 623.699219 L 208.085938 623.699219 C 218.480469 640.359375 230.484375 655.972656 243.871094 670.402344 L 193.417969 720.898438 L 111.167969 720.898438 C 106.136719 706.804688 92.753906 696.601562 76.949219 696.601562 C 56.828125 696.601562 40.5 712.925781 40.5 733.050781 C 40.5 753.171875 56.828125 769.5 76.949219 769.5 C 92.753906 769.5 106.136719 759.296875 111.167969 745.199219 L 203.480469 745.199219 L 261.097656 687.582031 C 283.074219 707.753906 308.085938 724.886719 335.707031 737.984375 L 399.828125 768.3125 C 401.441406 769.121094 403.195312 769.5 405 769.5 C 406.804688 769.5 408.558594 769.121094 410.171875 768.3125 L 474.292969 737.984375 C 579.796875 688.007812 648 580.226562 648 463.472656 L 648 392.851562 L 698.832031 392.851562 C 703.863281 406.945312 717.246094 417.148438 733.050781 417.148438 C 753.171875 417.148438 769.5 400.824219 769.5 380.699219 C 769.5 360.578125 753.171875 344.25 733.050781 344.25 " fill-opacity="1" fill-rule="nonzero"/></g></svg>